<?xml version="1.0" standalone="no"?>
<!DOCTYPE svg PUBLIC "-//W3C//DTD SVG 20010904//EN"
 "http://www.w3.org/TR/2001/REC-SVG-20010904/DTD/svg10.dtd">
<svg version="1.0" xmlns="http://www.w3.org/2000/svg"
 width="262.000000pt" height="201.000000pt" viewBox="0 0 262.000000 201.000000"
 preserveAspectRatio="xMidYMid meet">
<metadata>
Created by potrace 1.16, written by Peter Selinger 2001-2019
</metadata>
<g transform="translate(0.000000,201.000000) scale(0.100000,-0.100000)"
fill="#000000" stroke="none">
<path d="M1125 1433 c22 -3 44 -8 48 -12 11 -11 -94 -24 -118 -15 -18 7 -18 8
1 15 40 16 -22 9 -157 -16 -195 -37 -425 -65 -537 -65 l-97 0 25 -20 c51 -39
194 -74 380 -91 25 -3 -90 -17 -150 -19 l-55 -2 62 -29 c57 -28 126 -45 268
-67 l60 -9 -77 -2 c-43 0 -78 -5 -78 -10 0 -12 88 -49 152 -63 29 -6 105 -12
169 -12 l116 -1 84 43 c109 55 192 75 304 74 151 -1 262 -48 373 -155 28 -28
52 -46 52 -40 0 6 -6 18 -13 25 -14 13 -17 21 -17 37 0 5 -27 39 -60 75 -33
37 -60 70 -60 75 0 14 -105 116 -153 150 -49 33 -89 43 -46 11 15 -11 52 -49
83 -85 l57 -65 -40 15 c-22 7 -69 19 -103 26 -46 9 -78 22 -118 52 -52 39
-155 120 -174 137 -10 10 58 3 139 -15 33 -8 62 -12 64 -9 12 11 -85 37 -173
46 -56 6 -105 14 -110 19 -6 5 -39 8 -75 7 -46 -1 -54 -3 -26 -5z m125 -80
c27 -21 79 -60 116 -88 l67 -50 -59 -7 c-32 -4 -90 -17 -129 -29 -38 -11 -79
-22 -90 -25 -13 -3 -48 15 -105 55 -47 33 -102 72 -122 86 -21 15 -38 30 -38
34 0 13 206 58 273 60 29 1 49 -7 87 -36z"/>
<path d="M1812 1253 c-21 -4 -19 -8 32 -64 52 -56 145 -220 146 -258 1 -9 7
-4 17 14 26 50 85 105 123 114 110 28 193 20 205 -20 6 -19 25 -17 25 3 0 18
-61 68 -84 68 -12 0 -31 7 -42 15 -27 20 -37 19 -31 -5 4 -14 0 -20 -13 -20
-24 0 -43 26 -37 50 10 37 -17 21 -95 -59 -56 -57 -78 -74 -83 -63 -3 8 4 25
15 37 30 32 25 51 -7 25 -35 -27 -52 -6 -21 27 22 24 18 27 -17 14 -14 -6 -24
-3 -32 8 -10 14 -5 19 30 38 33 17 37 22 20 23 -12 0 -34 -5 -48 -12 -20 -9
-28 -9 -38 1 -15 15 6 31 40 31 12 0 25 5 29 11 4 8 -10 10 -47 9 -68 -3 -81
0 -49 10 19 6 21 8 5 8 -11 -1 -30 -3 -43 -5z"/>
<path d="M822 706 c-26 -111 -27 -126 -8 -126 9 0 18 23 26 67 l13 67 35 -70
35 -69 31 63 c16 34 33 62 37 62 4 0 10 -21 14 -46 9 -61 14 -74 31 -74 8 0
14 2 14 4 0 8 -41 181 -46 196 -4 9 -20 -13 -44 -60 l-38 -75 -36 78 c-19 42
-37 77 -39 77 -2 0 -13 -42 -25 -94z"/>
<path d="M1524 766 c-38 -38 -45 -86 -19 -135 14 -28 68 -61 99 -61 35 0 85
30 100 59 27 51 21 98 -18 137 -29 29 -41 34 -81 34 -40 0 -52 -5 -81 -34z
m121 -2 c25 -10 47 -62 40 -95 -11 -50 -75 -76 -124 -49 -29 15 -44 61 -31 95
18 48 65 68 115 49z"/>
<path d="M1770 690 c0 -91 3 -110 15 -110 11 0 15 12 15 48 l1 47 23 -27 c13
-15 31 -37 39 -48 8 -12 23 -20 32 -18 13 2 10 10 -16 46 l-32 43 22 20 c28
26 28 73 -1 93 -12 9 -39 16 -60 16 l-38 0 0 -110z"/>
<path d="M1970 773 c-64 -57 -43 -164 37 -192 23 -8 51 -11 67 -7 41 10 76 50
76 86 0 29 -1 30 -46 30 -32 0 -44 -4 -42 -12 3 -7 15 -14 27 -16 30 -5 24
-33 -10 -49 -32 -16 -84 -1 -99 27 -42 78 36 160 112 119 31 -17 45 5 17 25
-38 26 -103 21 -139 -11z"/>
<path d="M1096 706 c-35 -34 -35 -84 -2 -115 20 -19 31 -22 53 -16 15 5 36 7
46 6 15 -2 17 7 17 68 0 67 -1 71 -22 70 -13 0 -33 2 -45 6 -16 5 -29 0 -47
-19z"/>
</g>
</svg>
