<svg width="262" height="201" xmlns="http://www.w3.org/2000/svg" preserveAspectRatio="xMidYMid meet" version="1.0">
 <metadata>Created by potrace 1.16, written by Peter Selinger 2001-2019</metadata>

 <g>
  <title>Layer 1</title>
  <g id="svg_1" fill="#000000" transform="translate(0 201) scale(0.1 -0.1)">
   <path id="svg_2" d="m1125,1433c22,-3 44,-8 48,-12c11,-11 -94,-24 -118,-15c-18,7 -18,8 1,15c40,16 -22,9 -157,-16c-195,-37 -425,-65 -537,-65l-97,0l25,-20c51,-39 194,-74 380,-91c25,-3 -90,-17 -150,-19l-55,-2l62,-29c57,-28 126,-45 268,-67l60,-9l-77,-2c-43,0 -78,-5 -78,-10c0,-12 88,-49 152,-63c29,-6 105,-12 169,-12l116,-1l84,43c109,55 192,75 304,74c151,-1 262,-48 373,-155c28,-28 52,-46 52,-40c0,6 -6,18 -13,25c-14,13 -17,21 -17,37c0,5 -27,39 -60,75c-33,37 -60,70 -60,75c0,14 -105,116 -153,150c-49,33 -89,43 -46,11c15,-11 52,-49 83,-85l57,-65l-40,15c-22,7 -69,19 -103,26c-46,9 -78,22 -118,52c-52,39 -155,120 -174,137c-10,10 58,3 139,-15c33,-8 62,-12 64,-9c12,11 -85,37 -173,46c-56,6 -105,14 -110,19c-6,5 -39,8 -75,7c-46,-1 -54,-3 -26,-5zm125,-80c27,-21 79,-60 116,-88l67,-50l-59,-7c-32,-4 -90,-17 -129,-29c-38,-11 -79,-22 -90,-25c-13,-3 -48,15 -105,55c-47,33 -102,72 -122,86c-21,15 -38,30 -38,34c0,13 206,58 273,60c29,1 49,-7 87,-36z"/>
   <path id="svg_3" d="m1812,1253c-21,-4 -19,-8 32,-64c52,-56 145,-220 146,-258c1,-9 7,-4 17,14c26,50 85,105 123,114c110,28 193,20 205,-20c6,-19 25,-17 25,3c0,18 -61,68 -84,68c-12,0 -31,7 -42,15c-27,20 -37,19 -31,-5c4,-14 0,-20 -13,-20c-24,0 -43,26 -37,50c10,37 -17,21 -95,-59c-56,-57 -78,-74 -83,-63c-3,8 4,25 15,37c30,32 25,51 -7,25c-35,-27 -52,-6 -21,27c22,24 18,27 -17,14c-14,-6 -24,-3 -32,8c-10,14 -5,19 30,38c33,17 37,22 20,23c-12,0 -34,-5 -48,-12c-20,-9 -28,-9 -38,1c-15,15 6,31 40,31c12,0 25,5 29,11c4,8 -10,10 -47,9c-68,-3 -81,0 -49,10c19,6 21,8 5,8c-11,-1 -30,-3 -43,-5z"/>
   <path id="svg_4" d="m822,706c-26,-111 -27,-126 -8,-126c9,0 18,23 26,67l13,67l35,-70l35,-69l31,63c16,34 33,62 37,62c4,0 10,-21 14,-46c9,-61 14,-74 31,-74c8,0 14,2 14,4c0,8 -41,181 -46,196c-4,9 -20,-13 -44,-60l-38,-75l-36,78c-19,42 -37,77 -39,77c-2,0 -13,-42 -25,-94z"/>
   <path id="svg_5" d="m1524,766c-38,-38 -45,-86 -19,-135c14,-28 68,-61 99,-61c35,0 85,30 100,59c27,51 21,98 -18,137c-29,29 -41,34 -81,34c-40,0 -52,-5 -81,-34zm121,-2c25,-10 47,-62 40,-95c-11,-50 -75,-76 -124,-49c-29,15 -44,61 -31,95c18,48 65,68 115,49z"/>
   <path id="svg_6" d="m1770,690c0,-91 3,-110 15,-110c11,0 15,12 15,48l1,47l23,-27c13,-15 31,-37 39,-48c8,-12 23,-20 32,-18c13,2 10,10 -16,46l-32,43l22,20c28,26 28,73 -1,93c-12,9 -39,16 -60,16l-38,0l0,-110z"/>
   <path id="svg_7" d="m1970,773c-64,-57 -43,-164 37,-192c23,-8 51,-11 67,-7c41,10 76,50 76,86c0,29 -1,30 -46,30c-32,0 -44,-4 -42,-12c3,-7 15,-14 27,-16c30,-5 24,-33 -10,-49c-32,-16 -84,-1 -99,27c-42,78 36,160 112,119c31,-17 45,5 17,25c-38,26 -103,21 -139,-11z"/>
   <path id="svg_8" d="m1096,706c-35,-34 -35,-84 -2,-115c20,-19 31,-22 53,-16c15,5 36,7 46,6c15,-2 17,7 17,68c0,67 -1,71 -22,70c-13,0 -33,2 -45,6c-16,5 -29,0 -47,-19z"/>
  </g>
  <text font-style="normal" font-weight="bold" xml:space="preserve" text-anchor="start" font-family="sans-serif" font-size="26" id="svg_9" y="142.7" x="121.3" stroke-width="0" stroke="#000" fill="#000000">c</text>
 </g>
</svg>